<svg xmlns="http://www.w3.org/2000/svg" viewBox="0 0 1920 1080"><g transform="
          rotate(90 960 540) 
          translate(-746.6666666666665 -420)
          scale(1.7777777777777777)
        "><rect width="100%" height="100%" fill="rgb(55, 81, 126)"></rect><g transform="translate(0, 0)"><path fill="rgb(20, 32, 51)" fill-opacity="1" d="M0,1058.83L35.556,1050.225C71.111,1041.621,142.222,1024.412,213.333,1021.744C284.444,1019.076,355.556,1030.95,426.667,1032.285C497.778,1033.62,568.889,1024.417,640,909.549C711.111,794.682,782.222,574.15,853.333,555.525C924.444,536.9,995.556,720.181,1066.667,664.008C1137.778,607.835,1208.889,312.206,1280,295.441C1351.111,278.676,1422.222,540.773,1493.333,606.057C1564.444,671.341,1635.556,539.81,1706.667,418.067C1777.778,296.323,1848.889,184.366,1884.444,128.387L1920,72.409L1920,1080L1884.444,1080C1848.889,1080,1777.778,1080,1706.667,1080C1635.556,1080,1564.444,1080,1493.333,1080C1422.222,1080,1351.111,1080,1280,1080C1208.889,1080,1137.778,1080,1066.667,1080C995.556,1080,924.444,1080,853.333,1080C782.222,1080,711.111,1080,640,1080C568.889,1080,497.778,1080,426.667,1080C355.556,1080,284.444,1080,213.333,1080C142.222,1080,71.111,1080,35.556,1080L0,1080Z"></path></g></g></svg>